# xmcd
#
# Track frame offsets: 
#        150
#        19682
#        37591
#        51544
#        68173
#        86001
#        97772
#        111657
#        128167
#        143749
#        166118
#        179176
#        198467
#        215757
#        236424
#        255522
#        271306
#        287889
#        307321
#
# Disc length: 4317 seconds
#
# Revision: 0
# Processed by: cddbd v1.5.2PL0 Copyright (c) Steve Scherf et al.
# Submitted via: ExactAudioCopy v1.0b3
#
DISCID=1d10db13
DTITLE=Various Artist - Kapitel Eins - Zeit für was echtes
DYEAR=2009
DGENRE=HipHop
TTITLE0=Jonesmann, Blaze, Criz and Haftbefehl - Fahne hoch
TTITLE1=Blaze - Bitte was
TTITLE2=Haftbefehl - Hungrig und Stur
TTITLE3=Jonesmann - Klappe dicht (feat. Blaze and Olli Banjo)
TTITLE4=Criz - Mensch (feat. Jonesmann)
TTITLE5=Haftbefehl - Glaub an den Herrn (feat. Manuellsen)
TTITLE6=Haftbefehl - H.A.F.T
TTITLE7=Criz - Kein verbiegen
TTITLE8=Blaze - Was ich will
TTITLE9=Blaze, Jonesmann, Haftbefehl and Criz - So echt
TTITLE10=Yassir - Es ist Zeit
TTITLE11=Criz - Gott ist groß (feat. Yassir, Manuellsen and Jonesman)
TTITLE12=Yassir - Schon wieder
TTITLE13=Jonesmann - 2 Wege
TTITLE14=Jonesmann, Zuboehs and Criz - Blick nach vorn
TTITLE15=Haftbefehl - Freikampf (feat. Raf and Kenjada)
TTITLE16=Blaze - Das ist... (feat. Twin)
TTITLE17=Blaze, Criz and Haftbefehl - Spiel mit dem Feuer
TTITLE18=Jonesmann - Nur ich (feat. Blaze)
EXTD=
EXTT0=
EXTT1=
EXTT2=
EXTT3=
EXTT4=
EXTT5=
EXTT6=
EXTT7=
EXTT8=
EXTT9=
EXTT10=
EXTT11=
EXTT12=
EXTT13=
EXTT14=
EXTT15=
EXTT16=
EXTT17=
EXTT18=
PLAYORDER=
